<svg width="40" height="35" viewBox="0 0 40 35" fill="none" xmlns="http://www.w3.org/2000/svg">
<g clip-path="url(#clip0_0_2)">
<rect width="1280" height="700" transform="translate(-1077 -263)" fill="#EDEFF1"/>
<g filter="url(#filter0_d_0_2)">
<path fill-rule="evenodd" clip-rule="evenodd" d="M-697 -206H203V971H-697V-206Z" fill="white"/>
</g>
<g filter="url(#filter1_dd_0_2)">
<path fill-rule="evenodd" clip-rule="evenodd" d="M-513 7C-513 5.89543 -512.105 5 -511 5H1.94482L32 33V195C32 196.105 31.1046 197 30 197H-511C-512.105 197 -513 196.105 -513 195V7Z" fill="white"/>
</g>
<mask id="mask0_0_2" style="mask-type:luminance" maskUnits="userSpaceOnUse" x="-513" y="4" width="544" height="193">
<path d="M-513 6.67184C-513 5.56728 -512.105 4.67184 -511 4.67184H1L31 33.0766V195C31 196.105 30.1046 197 29 197H-511C-512.105 197 -513 196.105 -513 195V6.67184Z" fill="white"/>
<path d="M-513 6.67184C-513 5.56728 -512.105 4.67184 -511 4.67184H1L31 33.0766V195C31 196.105 30.1046 197 29 197H-511C-512.105 197 -513 196.105 -513 195V6.67184Z" stroke="white"/>
</mask>
<g mask="url(#mask0_0_2)">
</g>
<g opacity="0.853731" filter="url(#filter2_d_0_2)">
<path fill-rule="evenodd" clip-rule="evenodd" d="M2 5V33H32L2 5Z" fill="white"/>
</g>
</g>
<defs>
<filter id="filter0_d_0_2" x="-730" y="-222" width="950" height="1227" filterUnits="userSpaceOnUse" color-interpolation-filters="sRGB">
<feFlood flood-opacity="0" result="BackgroundImageFix"/>
<feColorMatrix in="SourceAlpha" type="matrix" values="0 0 0 0 0 0 0 0 0 0 0 0 0 0 0 0 0 0 127 0" result="hardAlpha"/>
<feOffset dx="-8" dy="9"/>
<feGaussianBlur stdDeviation="12.5"/>
<feColorMatrix type="matrix" values="0 0 0 0 0.191925 0 0 0 0 0.266303 0 0 0 0 0.366125 0 0 0 0.23112 0"/>
<feBlend mode="normal" in2="BackgroundImageFix" result="effect1_dropShadow_0_2"/>
<feBlend mode="normal" in="SourceGraphic" in2="effect1_dropShadow_0_2" result="shape"/>
</filter>
<filter id="filter1_dd_0_2" x="-523" y="-2" width="565" height="212" filterUnits="userSpaceOnUse" color-interpolation-filters="sRGB">
<feFlood flood-opacity="0" result="BackgroundImageFix"/>
<feColorMatrix in="SourceAlpha" type="matrix" values="0 0 0 0 0 0 0 0 0 0 0 0 0 0 0 0 0 0 127 0" result="hardAlpha"/>
<feOffset/>
<feGaussianBlur stdDeviation="0.5"/>
<feColorMatrix type="matrix" values="0 0 0 0 0 0 0 0 0 0 0 0 0 0 0 0 0 0 0.390682 0"/>
<feBlend mode="normal" in2="BackgroundImageFix" result="effect1_dropShadow_0_2"/>
<feColorMatrix in="SourceAlpha" type="matrix" values="0 0 0 0 0 0 0 0 0 0 0 0 0 0 0 0 0 0 127 0" result="hardAlpha"/>
<feOffset dy="3"/>
<feGaussianBlur stdDeviation="5"/>
<feColorMatrix type="matrix" values="0 0 0 0 0 0 0 0 0 0 0 0 0 0 0 0 0 0 0.0869282 0"/>
<feBlend mode="normal" in2="effect1_dropShadow_0_2" result="effect2_dropShadow_0_2"/>
<feBlend mode="normal" in="SourceGraphic" in2="effect2_dropShadow_0_2" result="shape"/>
</filter>
<filter id="filter2_d_0_2" x="-1" y="4" width="34" height="32" filterUnits="userSpaceOnUse" color-interpolation-filters="sRGB">
<feFlood flood-opacity="0" result="BackgroundImageFix"/>
<feColorMatrix in="SourceAlpha" type="matrix" values="0 0 0 0 0 0 0 0 0 0 0 0 0 0 0 0 0 0 127 0" result="hardAlpha"/>
<feOffset dx="-1" dy="1"/>
<feGaussianBlur stdDeviation="1"/>
<feColorMatrix type="matrix" values="0 0 0 0 0 0 0 0 0 0 0 0 0 0 0 0 0 0 0.1 0"/>
<feBlend mode="normal" in2="BackgroundImageFix" result="effect1_dropShadow_0_2"/>
<feBlend mode="normal" in="SourceGraphic" in2="effect1_dropShadow_0_2" result="shape"/>
</filter>
<clipPath id="clip0_0_2">
<rect width="1280" height="700" fill="white" transform="translate(-1077 -263)"/>
</clipPath>
</defs>
</svg>
